<?xml version="1.0" encoding="UTF-8" standalone="no"?>
<!-- Generator: Adobe Illustrator 18.1.1, SVG Export Plug-In . SVG Version: 6.00 Build 0)  -->
<svg id="Layer_1" xmlns="http://www.w3.org/2000/svg" xml:space="preserve" height="100px" viewBox="387 931.7 400 100" width="400px" version="1.1" y="0px" x="0px" xmlns:xlink="http://www.w3.org/1999/xlink" enable-background="new 387 931.7 400 100">
<g fill="#F6A71C">
	<path d="m413.7 950.7s15.3-2.5 15.5-1.7c1.7 3.6 4.9 50.3 4.9 50.3s3.8 18.5-3.6 24.7c-7.4 6.2-16.8 7.9-22.6 7.6-5.7 0-9.8-0.2-11.1-0.8-2.2-1.1-4.1-11.1-1.3-13 3.6-2.5 13.8 2.5 17.7 0.6 3.6-1.9 6.8-5.1 6.2-10.4-0.6-5.1-0.6-6.2-0.6-6.2s-2.7 8.7-9.5 10c-6.8 1.7-16.3-3.6-19.1-17.2-2.7-13.6-2.2-25.9-1.1-30.8 1.3-4.9 4.7-13.6 12.3-13.6 7.9 0 12.3 6.8 12.3 6.8v-6.3zm-10.9 17.6c-1.9 3-1.9 9.8-0.2 19.1s7.4 10.9 9.2 10.9 9.2-2.2 6.8-19.3c-2.5-17.2-10.4-15.3-10.4-15.3-3 0.3-3.5 1.4-5.4 4.6z"/>
	<path d="m443.9 933l13.6-0.6s-0.2 30.2 1.1 32.3c0.2 0.6 11.7 0.2 11.9-0.2 0.2-3.6-1.1-32.3-1.1-32.3l13.6-0.6s1.9 42.7 2.2 45.1c0 3.8 0.8 32.9 0.2 33.2-2.5 2.1-13.6 0.6-13.6 0.6s-0.6-28.3-1.1-32.9c0-0.6-11.9 0.2-11.9 0.2 0.2 6.2 2.2 30.8 1.1 32.9-1.9 3-13.6 0.6-13.6 0.6-0.9-12.2-2.4-78.3-2.4-78.3z"/>
</g>
<g fill="#F6A71C">
	<path d="m535.7 944.8l-4.6 17.6-2.2-16.7-2.9 16.3-4.1-17v17.6s-4.1-13.3-6-18.4c-0.9 31.9 8.4 34.1 8.4 34.1l-2.6 50.5 12.4 0.7s-3.3-38.4-3.6-51.5c9.7-1.2 5.2-33.2 5.2-33.2z"/>
	<path d="m558.2 1031.7l-1-37.3-5.1-62.7s-9 9-10.2 26.6 8.2 37 8.2 37l-1.7 34.3 9.8 2.1z"/>
</g>
<path d="m651.9 985.9s12.1-30.7-14.1-42.7c-26.3-12-44 4.4-50.8 22.5 0 18.5 4.4 31.8 20.9 38.4 16.6 6.5 31.8 1.1 36.8-6.5l31.4 25.9 10.9-18.8-35.1-18.8zm-8.2-5.6c-6.5 14.1-16.6 17.7-24.4 16.8-22-5-21.6-25.8-21.6-25.8 4.4-13.7 13.3-20.9 26.4-19.4 13.4 1.3 26.1 14.2 19.6 28.4z" fill="#F6A71C"/>
<path d="m730.7 1031.6l3.4-18s-10.9-5.9-15.1-10.9c-4-4.8-16.6-18.4-12.8-22.9 3.8-4.4 20.6 9.1 20.6 9.1s-7.1-28.1-6.9-48.1c2.1-6.1 7.1-13.3 8.9-5.9 1.6 7.5 5.5 27.7 5.5 27.7l31.1 9.9-5.7 38.8 8.9 20.4-37.9-0.1z" fill="#F6A71C"/>
</svg>
